<?xml version="1.0" encoding="utf-8" ?>
<svg xmlns="http://www.w3.org/2000/svg" xmlns:xlink="http://www.w3.org/1999/xlink" width="300" height="300">
	<path fill="#FEFEFE" transform="matrix(0.385109 0 0 0.385109 3.05176e-05 7.62939e-06)" d="M544.028 320.959C557.007 320.569 570.108 320.955 583.1 320.971L583.092 365.855C583.075 374.915 582.765 384.073 583.208 393.116C590.157 391.872 596.72 389.377 603.832 388.765C611.585 388.098 619.552 388.351 627.333 388.373C644.823 388.423 662.186 389.058 679.656 389.705C683.134 389.834 694.563 389.532 697.155 390.736L697.367 391.593C696.889 393.194 695.924 394.321 694.924 395.623C687.09 398.046 678.411 397.537 670.31 398.469C665.444 399.029 660.685 400.627 655.853 401.452C650.664 402.337 645.341 402.32 640.147 403.183C635.685 403.924 631.486 405.622 627.14 406.83C616.941 408.457 599.99 419.715 592.694 427.146C589.505 430.394 585.955 434.274 584.283 438.58C582.015 444.423 583.115 473.975 583.147 481.997L544.044 481.984C543.443 458.103 543.926 434.101 543.925 410.209C543.924 380.474 543.553 350.688 544.028 320.959Z"/>
	<path fill="#FEFEFE" transform="matrix(0.385109 0 0 0.385109 3.05176e-05 7.62939e-06)" d="M202.047 300.898L241.11 300.921L241.151 503.007L202.028 502.974C201.735 490.462 201.952 477.902 201.951 465.384L201.996 442.445C202.009 434.883 202.739 426.923 200.502 419.626C197.963 417.972 195.629 416.395 192.726 415.449C188.647 414.119 184.146 414.003 179.932 413.275L138.88 406.574C134.504 405.846 128.929 405.848 125.171 403.308L125.18 401.883C126.665 400.951 128.481 400.549 130.197 400.293C135.332 399.528 140.671 399.969 145.847 399.358C153.8 398.421 161.64 396.606 169.636 395.992C175.387 395.55 182.149 396.417 187.679 394.912C190.45 394.158 192.857 392.164 194.898 390.207C197.395 387.811 200.11 384.788 201.042 381.394C202.966 374.389 201.978 360.926 201.971 353.148C201.956 335.746 201.671 318.294 202.047 300.898Z"/>
	<path fill="#FEFEFE" transform="matrix(0.385109 0 0 0.385109 3.05176e-05 7.62939e-06)" d="M374.203 248.896C387.139 248.618 400.147 248.918 413.091 248.937L413.09 444.526L413.082 507.657C413.082 518.044 413.644 528.671 413.016 539.02L374.065 539.009C373.705 530.892 373.93 522.682 373.929 514.554L373.927 472.812L373.929 344.004L373.955 278.069C373.958 270.214 373.071 256.056 374.203 248.896Z"/>
	<path fill="#FEFEFE" transform="matrix(0.385109 0 0 0.385109 3.05176e-05 7.62939e-06)" d="M461.055 203.897L500.114 203.918L500.173 599.045L461.036 599.031C460.586 576.947 460.963 554.775 460.962 532.683L460.963 406.562L460.957 275.526C460.953 251.664 460.61 227.751 461.055 203.897Z"/>
	<path fill="#FEFEFE" transform="matrix(0.385109 0 0 0.385109 3.05176e-05 7.62939e-06)" d="M287.109 147.93C300.083 147.76 313.082 147.936 326.058 147.944L326.055 483.226L326.055 591.697L326.082 626.756C326.09 633.135 326.346 639.644 325.976 646.008C313.031 645.84 300.066 645.987 287.118 645.97C286.692 635.365 286.921 624.7 286.92 614.085L286.924 560.02L286.933 397.302L286.928 233.786L286.926 180.114C286.924 169.406 286.683 158.628 287.109 147.93Z"/>
</svg>
